<?xml version="1.0" encoding="utf-8"?>
<!-- Generator: Adobe Illustrator 22.1.0, SVG Export Plug-In . SVG Version: 6.00 Build 0)  -->
<svg version="1.1" id="레이어_1" xmlns="http://www.w3.org/2000/svg" xmlns:xlink="http://www.w3.org/1999/xlink" x="0px"
	 y="0px" viewBox="0 0 396.5 396.5" style="enable-background:new 0 0 396.5 396.5;" xml:space="preserve">
<style type="text/css">
	.st0{fill:#EC9500;}
	.st1{fill:url(#SVGID_1_);}
	.st2{fill:url(#SVGID_2_);}
	.st3{fill:url(#SVGID_3_);}
	.st4{fill:url(#SVGID_4_);}
	.st5{fill:url(#SVGID_5_);}
	.st6{fill:url(#SVGID_6_);}
	.st7{fill:url(#SVGID_7_);}
	.st8{fill:url(#SVGID_8_);}
	.st9{fill:url(#SVGID_9_);}
	.st10{fill:url(#SVGID_10_);}
</style>
<path d="M0,209.4c5,2.1,77.9,24.2,83.5,24.6c-1.6-4-7.6-57.7-7.4-61.5C72,174.9,6,206.5,0,209.4L0,209.4z"/>
<path class="st0" d="M333.1,313.2c0-22.4-25.4-40.6-56.7-40.6c-31.3,0-56.7,18.2-56.7,40.6s25.4,40.6,56.7,40.6
	C307.7,353.9,333.1,335.7,333.1,313.2z"/>
<linearGradient id="SVGID_1_" gradientUnits="userSpaceOnUse" x1="324.4229" y1="127.7189" x2="224.3829" y2="127.7189" gradientTransform="matrix(1 0 0 -1 -2.856016e-03 440.6065)">
	<stop  offset="0" style="stop-color:#FFFFFF;stop-opacity:0.498"/>
	<stop  offset="1" style="stop-color:#FFFFFF;stop-opacity:0"/>
</linearGradient>
<path class="st1" d="M224.4,312.9c0-18.8,22.4-34,50-34s50,15.2,50,34c0,18.8-22.4,34-50,34S224.4,331.7,224.4,312.9z"/>
<path class="st0" d="M200.3,313.2c0-22.4-25.4-40.6-56.7-40.6s-56.7,18.2-56.7,40.6s25.4,40.6,56.7,40.6S200.3,335.7,200.3,313.2z"
	/>
<linearGradient id="SVGID_2_" gradientUnits="userSpaceOnUse" x1="-40.2391" y1="255.2189" x2="126.0508" y2="255.2189" gradientTransform="matrix(1 0 0 -1 -2.856016e-03 440.6065)">
	<stop  offset="0" style="stop-color:#FFFFFF;stop-opacity:0.498"/>
	<stop  offset="1" style="stop-color:#FFFFFF;stop-opacity:0"/>
</linearGradient>
<path class="st2" d="M320.6,185.4c0-18.8-37.2-34-83.1-34s-83.1,15.2-83.1,34s37.2,34,83.1,34S320.6,204.2,320.6,185.4z"/>
<linearGradient id="SVGID_3_" gradientUnits="userSpaceOnUse" x1="94.3829" y1="127.7189" x2="195.6729" y2="127.7189" gradientTransform="matrix(1 0 0 -1 -2.856016e-03 440.6065)">
	<stop  offset="0" style="stop-color:#FFFFFF;stop-opacity:0.498"/>
	<stop  offset="1" style="stop-color:#FFFFFF;stop-opacity:0"/>
</linearGradient>
<path class="st3" d="M195.7,312.9c0-18.8-22.7-34-50.6-34s-50.6,15.2-50.6,34c0,18.8,22.7,34,50.6,34S195.7,331.7,195.7,312.9
	L195.7,312.9z"/>
<path d="M344.4,183.2c0-77.7-64.4-140.6-143.7-140.6s-143.7,63-143.7,140.6s64.4,140.6,143.7,140.6S344.4,260.9,344.4,183.2z"/>
<linearGradient id="SVGID_4_" gradientUnits="userSpaceOnUse" x1="201.2625" y1="380.5193" x2="201.2525" y2="198.6293" gradientTransform="matrix(1 0 0 -1 -2.856016e-03 440.6065)">
	<stop  offset="0" style="stop-color:#FFFFFF;stop-opacity:0.498"/>
	<stop  offset="1" style="stop-color:#FFFFFF;stop-opacity:0"/>
</linearGradient>
<path class="st4" d="M318.1,144.5c0.6-51.4-51.2-93.5-115.8-94C137.8,50,85,91.3,84.4,142.8c0,0.6,0,1.1,0,1.7
	c0.6,51.4,53.4,92.7,118,92.3C266,236.3,317.5,195.2,318.1,144.5z"/>
<linearGradient id="SVGID_5_" gradientUnits="userSpaceOnUse" x1="165.8995" y1="349.0408" x2="165.1595" y2="253.4818" gradientTransform="matrix(1 0 0 -1 -2.856016e-03 440.6065)">
	<stop  offset="0" style="stop-color:#FFFFFF;stop-opacity:0.698"/>
	<stop  offset="1" style="stop-color:#FFFFFF"/>
</linearGradient>
<path class="st5" d="M212.9,137.5c0.1-26.2-21-47.5-47.2-47.6s-47.5,21-47.6,47.2c0,0.1,0,0.3,0,0.4c0.1,26.2,21.4,47.3,47.6,47.2
	C191.8,184.6,212.8,163.5,212.9,137.5z"/>
<path d="M201.9,148.9c0-9.7-7.8-17.5-17.5-17.5c-9.7,0-17.5,7.8-17.5,17.5s7.8,17.5,17.5,17.5C194,166.4,201.9,158.5,201.9,148.9z"
	/>
<linearGradient id="SVGID_6_" gradientUnits="userSpaceOnUse" x1="-1113.4685" y1="1091.9426" x2="-1114.5385" y2="889.7726" gradientTransform="matrix(-0.5377 0 0 0.2565 -396.5576 33.3977)">
	<stop  offset="0" style="stop-color:#999999"/>
	<stop  offset="1" style="stop-color:#FFFFFF"/>
</linearGradient>
<path class="st6" d="M125.2,279.5c0.3,20.4,35.2,36.8,77.8,36.6c42.3-0.1,76.4-16.5,76.7-36.6c0.3-20.4-34-37-76.7-37.1
	c-42.7-0.1-77.5,16.2-77.8,36.6C125.2,279.1,125.2,279.3,125.2,279.5L125.2,279.5z"/>
<linearGradient id="SVGID_7_" gradientUnits="userSpaceOnUse" x1="165.5448" y1="325.0319" x2="165.5448" y2="286.5989" gradientTransform="matrix(1 0 0 -1 -2.856016e-03 440.6065)">
	<stop  offset="0" style="stop-color:#FFFFFF;stop-opacity:0.498"/>
	<stop  offset="1" style="stop-color:#FFFFFF;stop-opacity:0"/>
</linearGradient>
<path class="st7" d="M207.9,138.8c0-23.4-19-42.4-42.4-42.4s-42.4,19-42.4,42.4c0,0,0,0,0,0c0,23.4,19,42.4,42.4,42.4
	C189,181.2,207.9,162.2,207.9,138.8z"/>
<linearGradient id="SVGID_8_" gradientUnits="userSpaceOnUse" x1="-1162.5951" y1="0.4171" x2="-1163.635" y2="-134.3829" gradientTransform="matrix(-0.522 0 0 -0.522 -351.584 108.9016)">
	<stop  offset="0" style="stop-color:#FFFFFF;stop-opacity:0.698"/>
	<stop  offset="1" style="stop-color:#FFFFFF"/>
</linearGradient>
<path class="st8" d="M220.6,142.5c0-19.3,15.6-34.9,34.9-34.9s34.9,15.6,34.9,34.9s-15.6,34.9-34.9,34.9S220.6,161.8,220.6,142.5
	L220.6,142.5z"/>
<path d="M228.8,150.9c0-7.1,5.8-12.9,12.9-12.9c7.1,0,12.9,5.8,12.9,12.9c0,7.1-5.8,12.9-12.9,12.9
	C234.5,163.8,228.8,158,228.8,150.9z"/>
<linearGradient id="SVGID_9_" gradientUnits="userSpaceOnUse" x1="255.5489" y1="314.2489" x2="255.5489" y2="285.9489" gradientTransform="matrix(1 0 0 -1 -2.856016e-03 440.6065)">
	<stop  offset="0" style="stop-color:#FFFFFF;stop-opacity:0.498"/>
	<stop  offset="1" style="stop-color:#FFFFFF;stop-opacity:0"/>
</linearGradient>
<path class="st9" d="M224.3,143.4c0-17.2,14-31.2,31.2-31.2c17.2,0,31.2,14,31.2,31.2c0,0,0,0,0,0c0,17.2-14,31.2-31.2,31.2
	C238.3,174.6,224.3,160.7,224.3,143.4z"/>
<path d="M396.5,195.6c-4.3,3.1-67.5,39.3-72.5,40.5c1-4.9,0.6-68.2,0-72.5C327.9,165.8,390.7,193.1,396.5,195.6L396.5,195.6z"/>
<path class="st0" d="M146.9,196.8c7.6-1.7,112.8-15,119.9-14.1c-5,5.2-54,78.3-56.6,83.5C207,261.9,151.9,202.3,146.9,196.8
	L146.9,196.8z"/>
<linearGradient id="SVGID_10_" gradientUnits="userSpaceOnUse" x1="206.1899" y1="244.5589" x2="206.1899" y2="181.004" gradientTransform="matrix(1 0 0 -1 -2.856016e-03 440.6065)">
	<stop  offset="0" style="stop-color:#FFFFFF;stop-opacity:0.624"/>
	<stop  offset="1" style="stop-color:#EC9500;stop-opacity:0.365"/>
</linearGradient>
<path class="st10" d="M159.4,200.9c5.9-1.3,88.1-11.4,93.6-10.7c-3.9,3.9-42.2,59.5-44.2,63.5C206.3,250.4,163.3,205.1,159.4,200.9
	L159.4,200.9z"/>
</svg>
